<svg id="Layer_1" data-name="Layer 1" xmlns="http://www.w3.org/2000/svg" viewBox="0 0 150 150"><defs><style>.cls-1{fill:#fff;}</style></defs><title>icons</title><path class="cls-1" d="M139.81,39.38a73.89,73.89,0,0,0-27-27,72.6,72.6,0,0,0-37.26-10,72.57,72.57,0,0,0-37.26,10,73.81,73.81,0,0,0-27,27,72.57,72.57,0,0,0-10,37.26,72.11,72.11,0,0,0,14.16,43.63,72.68,72.68,0,0,0,36.58,26.82c1.74.33,3,.1,3.87-.67a3.76,3.76,0,0,0,1.25-2.9c0-.19,0-1.93,0-5.22s-.05-6.15-.05-8.6l-2.23.39a27.6,27.6,0,0,1-5.36.33,40.89,40.89,0,0,1-6.72-.67,15,15,0,0,1-6.47-2.9A12.27,12.27,0,0,1,32,120.91l-1-2.23a24.49,24.49,0,0,0-3-4.93,11.68,11.68,0,0,0-4.2-3.67l-.68-.48a6.81,6.81,0,0,1-1.25-1.16,5,5,0,0,1-.87-1.36q-.3-.67.48-1.11a6.29,6.29,0,0,1,2.8-.43l1.94.29A14.18,14.18,0,0,1,31,108.15a15.68,15.68,0,0,1,4.69,5,17,17,0,0,0,5.36,6,11.38,11.38,0,0,0,6.33,2.08,27.54,27.54,0,0,0,5.51-.48,19.17,19.17,0,0,0,4.35-1.45q.87-6.48,4.74-10a65.61,65.61,0,0,1-9.91-1.74A39.48,39.48,0,0,1,43,103.89a26.17,26.17,0,0,1-7.78-6.47,31.26,31.26,0,0,1-5.07-10.15,48.29,48.29,0,0,1-2-14.5,28.15,28.15,0,0,1,7.64-19.91q-3.59-8.79.67-19.72,2.81-.87,8.31,1.31a57.28,57.28,0,0,1,8.07,3.72q2.57,1.55,4.11,2.61a69.88,69.88,0,0,1,37.12,0l3.67-2.32a51.94,51.94,0,0,1,8.89-4.25c3.41-1.29,6-1.65,7.83-1.07q4.35,10.94.77,19.72a28.21,28.21,0,0,1,7.64,19.91,48.81,48.81,0,0,1-2,14.55,29.88,29.88,0,0,1-5.12,10.14,27.1,27.1,0,0,1-7.83,6.43,39.48,39.48,0,0,1-9.09,3.77A64.45,64.45,0,0,1,89,109.4q5,4.35,5,13.73v20.39a3.85,3.85,0,0,0,1.21,2.9c.8.77,2.08,1,3.82.67a72.68,72.68,0,0,0,36.58-26.82,72.14,72.14,0,0,0,14.16-43.64A72.76,72.76,0,0,0,139.81,39.38Z"/></svg>