<svg id="Layer_1" data-name="Layer 1" xmlns="http://www.w3.org/2000/svg" viewBox="0 0 150 150"><defs><style>.cls-1{fill:#fff;}</style></defs><title>icons</title><path class="cls-1" d="M83.74,62.37c1.73-2,3.26-4,5-5.82a26.6,26.6,0,0,1,16.28-8,37.29,37.29,0,0,1,18,1.86,28.77,28.77,0,0,1,15.58,13.51c4.09,7.41,5.32,15.5,5.35,23.82.05,16.61,0,33.22,0,49.83,0,.29,0,.58,0,.92H114.59V92.1A33.92,33.92,0,0,0,113,80.61c-2.29-6.47-7.54-9.64-14.36-9.19A16,16,0,0,0,84.47,83a25.81,25.81,0,0,0-.7,7.1c-.06,15.6,0,31.2,0,46.8v1.54H54.46V50.26h1.18c8.94,0,17.88,0,26.82,0,1,0,1.32.3,1.3,1.32-.06,3.22,0,6.44,0,9.66Z"/><path class="cls-1" d="M38,138.5H8.87c0-.44-.07-.83-.07-1.22q0-42.86,0-85.7c0-1,.18-1.35,1.28-1.35,8.93.05,17.87,0,26.81,0,.36,0,.72,0,1.16.05Z"/><path class="cls-1" d="M23.38,38.22c-5.7-.1-10.6-1.92-13.86-6.86A15,15,0,0,1,17.74,8.62c5.64-1.69,11.17-1.34,16.1,2.12s6.75,8.5,6,14.33A13.79,13.79,0,0,1,30.29,37a51.73,51.73,0,0,1-6.84,1.52Z"/></svg>