<svg id="Layer_1" data-name="Layer 1" xmlns="http://www.w3.org/2000/svg" viewBox="0 0 150 150"><defs><style>.cls-1{fill:#fff;}</style></defs><title>icons</title><path class="cls-1" d="M6.3,31.76A13.92,13.92,0,0,0,3.13,40.6v71.52A14,14,0,0,0,9.74,124L54.25,75.38Z"/><path class="cls-1" d="M140.38,124.08a14,14,0,0,0,6.75-12V40.61A13.88,13.88,0,0,0,144,31.76L96.28,75.13Z"/><path class="cls-1" d="M76.53,93.08l-.06.06-.1.08-.08,0-.1.06-.08,0-.1.05-.08,0-.12,0-.08,0-.13,0-.07,0-.14,0s0,0-.06,0-.13,0-.2,0-.14,0-.2,0,0,0-.06,0h-.21a.28.28,0,0,1-.13,0l-.08,0-.12,0-.08,0-.11,0-.08-.05-.1-.07-.08,0-.1-.08-.07-.06L57.37,78.23,13.88,125.76a13.6,13.6,0,0,0,3.24.38h116a13.47,13.47,0,0,0,3.1-.36L93.16,78Z"/><path class="cls-1" d="M140.8,28.9a13.91,13.91,0,0,0-7.67-2.32h-116A13.94,13.94,0,0,0,9.45,28.9L75.13,88.65Z"/></svg>