<svg id="Layer_1" data-name="Layer 1" xmlns="http://www.w3.org/2000/svg" viewBox="0 0 150 150"><defs><style>.cls-1{fill:#fff;}</style></defs><title>icons</title><path class="cls-1" d="M49.4,3.71A12.66,12.66,0,0,0,36.77,16.34V133.18A12.66,12.66,0,0,0,49.4,145.81h58.73a12.67,12.67,0,0,0,12.64-12.63V16.34A12.67,12.67,0,0,0,108.13,3.71ZM71.73,15.87H85.81c.93,0,1.68,1.06,1.68,2.37s-.75,2.37-1.68,2.37H71.73c-.93,0-1.68-1.06-1.68-2.37S70.8,15.87,71.73,15.87Zm-28,16.89h70.12v84H43.71Zm35.06,90.7A7.82,7.82,0,1,1,71,131.28,7.82,7.82,0,0,1,78.77,123.46Z"/></svg>